<?xml version="1.0" encoding="UTF-8"?>
<svg version="1.1" xmlns="http://www.w3.org/2000/svg" width="300" height="300">
<path d="M0 0 C1.24508331 0.00506058 1.24508331 0.00506058 2.51531982 0.01022339 C15.4372403 0.08611783 27.78161671 0.77017358 40.25 4.4375 C41.06984375 4.67355957 41.8896875 4.90961914 42.734375 5.15283203 C81.40068594 16.65042564 114.14642115 43.42686622 133.37890625 78.828125 C138.42735957 88.42777601 142.38267399 98.25566014 145.5625 108.625 C145.80500488 109.40762207 146.04750977 110.19024414 146.29736328 110.99658203 C149.85490496 123.14250703 150.59933088 135.14944071 150.56567383 147.71972656 C150.56252202 150.17037873 150.58603736 152.61980908 150.61132812 155.0703125 C150.6736873 170.0525035 148.56108988 184.08695306 143.6875 198.3125 C143.17195557 199.83012939 143.17195557 199.83012939 142.64599609 201.37841797 C128.92665383 240.28556738 99.51020334 270.39091067 62.6875 288.15625 C42.58120045 297.11269253 22.44501107 301.04912295 0.5 300.875 C-0.33005554 300.87162628 -1.16011108 300.86825256 -2.01531982 300.86477661 C-14.9372403 300.78888217 -27.28161671 300.10482642 -39.75 296.4375 C-40.56984375 296.20144043 -41.3896875 295.96538086 -42.234375 295.72216797 C-80.90068594 284.22457436 -113.64642115 257.44813378 -132.87890625 222.046875 C-137.92735957 212.44722399 -141.88267399 202.61933986 -145.0625 192.25 C-145.30500488 191.46737793 -145.54750977 190.68475586 -145.79736328 189.87841797 C-149.35490496 177.73249297 -150.09933088 165.72555929 -150.06567383 153.15527344 C-150.06252202 150.70462127 -150.08603736 148.25519092 -150.11132812 145.8046875 C-150.1736873 130.8224965 -148.06108988 116.78804694 -143.1875 102.5625 C-142.84380371 101.55074707 -142.50010742 100.53899414 -142.14599609 99.49658203 C-128.42665383 60.58943262 -99.01020334 30.48408933 -62.1875 12.71875 C-42.08120045 3.76230747 -21.94501107 -0.17412295 0 0 Z " fill="#368FB9" transform="translate(149.75,-0.4375)"/>
<path d="M0 0 C2.34571503 1.19689148 3.09142469 2.26530579 4.40625 4.53515625 C5.03080078 5.60830078 5.03080078 5.60830078 5.66796875 6.703125 C10.90625 16.30388653 10.90625 16.30388653 10.90625 18.97265625 C11.81375 18.47765625 12.72125 17.98265625 13.65625 17.47265625 C16.90625 15.97265625 16.90625 15.97265625 20.90625 15.97265625 C25.98997692 31.223837 27.71487041 48.51423097 21.90625 63.97265625 C21.5659375 64.9471875 21.225625 65.92171875 20.875 66.92578125 C18.28139826 73.76027233 14.77376235 79.47463557 10.48046875 85.37890625 C8.56035417 88.03688727 8.56035417 88.03688727 8.90625 91.97265625 C10.65399722 94.16393923 10.65399722 94.16393923 12.96875 96.34765625 C22.58716187 106.60324998 27.31902213 119.05642789 27.09375 133.03515625 C27.0927832 134.18081055 27.0927832 134.18081055 27.09179688 135.34960938 C27.05612031 139.98359856 26.66509254 144.40138876 25.90625 148.97265625 C35.95688913 146.77289372 44.26779176 142.30191055 53.12548828 137.21386719 C60.19136331 133.18952732 65.87042696 130.6920248 74.15625 130.66015625 C75.17203125 130.64339844 76.1878125 130.62664062 77.234375 130.609375 C79.90625 130.97265625 79.90625 130.97265625 81.73828125 132.2734375 C83.71953476 135.15586318 83.32692353 137.607268 82.90625 140.97265625 C80.09636509 143.64689154 77.34597338 144.57731375 73.65625 145.59765625 C63.71963997 148.75599196 54.87414206 154.41319405 46.15625 160.03515625 C39.74242542 163.96019762 32.60293028 166.43896661 25.61328125 169.140625 C17.99425897 172.02022455 17.99425897 172.02022455 10.90625 175.97265625 C2.95848091 178.09008623 -5.35966117 178.53473483 -13.53125 179.09765625 C-14.66884766 179.18402344 -15.80644531 179.27039063 -16.97851562 179.359375 C-22.52349988 179.75793063 -28.07122337 180.07026745 -33.62890625 180.21484375 C-35.02894897 180.25520752 -35.02894897 180.25520752 -36.45727539 180.29638672 C-40.58760968 179.78922649 -43.19845381 177.86795244 -46.09375 174.97265625 C-46.88124723 170.31177149 -46.69410861 166.89195537 -44.09375 162.91015625 C-43.43375 162.27078125 -42.77375 161.63140625 -42.09375 160.97265625 C-43.74375 159.65265625 -45.39375 158.33265625 -47.09375 156.97265625 C-47.10792969 157.52953125 -47.12210938 158.08640625 -47.13671875 158.66015625 C-47.52156139 164.81763855 -49.04233134 169.25177239 -53.09375 173.97265625 C-57.37114274 176.90572555 -63.07957377 176.51017594 -68.09375 175.97265625 C-71.495435 174.63628 -73.52853846 173.53786779 -76.09375 170.97265625 C-76.43865322 166.92004338 -76.39538882 165.42511449 -74.09375 161.97265625 C-74.67125 161.93140625 -75.24875 161.89015625 -75.84375 161.84765625 C-80.03096246 160.21929585 -81.53207726 156.18025264 -83.34375 152.28515625 C-84.97409639 145.08445969 -85.07502646 138.37859431 -81.4453125 131.82421875 C-80.09375 129.97265625 -80.09375 129.97265625 -78.3046875 128.37109375 C-74.6752419 125.10011191 -72.95217227 122.59932442 -72.59765625 117.69921875 C-72.50541704 115.21881337 -72.46809444 112.74082273 -72.43139648 110.2590332 C-72.06424726 93.92486605 -63.23864834 83.91936102 -52.23046875 72.84375 C-50.09375 70.97265625 -50.09375 70.97265625 -48.09375 70.97265625 C-48.65964844 70.0084375 -49.22554687 69.04421875 -49.80859375 68.05078125 C-50.54973689 66.77488926 -51.29060807 65.49883926 -52.03125 64.22265625 C-52.40443359 63.5884375 -52.77761719 62.95421875 -53.16210938 62.30078125 C-56.41200121 56.67934672 -57.72570929 52.50290228 -57.09375 45.97265625 C-55.30579967 40.39076254 -53.21306915 36.13279538 -47.90625 33.34765625 C-46.74029297 32.80431641 -46.74029297 32.80431641 -45.55078125 32.25 C-42.7191739 30.77792432 -40.52618612 28.97186338 -38.09375 26.91015625 C-31.74947078 21.72915781 -26.74803563 18.83786966 -18.46875 19.09765625 C-15.64978106 19.11520557 -15.64978106 19.11520557 -13.09375 17.97265625 C-10.71799012 14.56930337 -9.16374132 11.22318958 -7.62890625 7.390625 C-4.28432935 -0.05595206 -4.28432935 -0.05595206 0 0 Z " fill="#368FB9" transform="translate(160.09375,60.02734375)"/>
<path d="M0 0 C5.14092554 2.8041412 7.64036511 7.79876224 10 13 C10 13.66 10 14.32 10 15 C11.19625 14.896875 12.3925 14.79375 13.625 14.6875 C17.34517359 14.74008196 19.88192887 15.38652773 22.68359375 18.05078125 C31.25208085 30.73824434 30.47864964 51.15300875 27.875 65.6875 C25.72613402 75.13440138 22.45175952 84.58109293 17.0625 92.6875 C14.76957652 95.63117342 14.76957652 95.63117342 15.171875 97.96484375 C16.15932563 100.39155024 17.45566134 101.90995569 19.1875 103.875 C28.59886659 115.59079586 31.15646859 129.43798401 32 144 C32.83809204 143.52373169 32.83809204 143.52373169 33.69311523 143.0378418 C36.27004843 141.57955666 38.8536569 140.13350394 41.4375 138.6875 C42.31599609 138.18798828 43.19449219 137.68847656 44.09960938 137.17382812 C54.77843286 131.22363497 63.62149062 128.76075665 76 130 C80.1318068 131.20086996 82.47666894 133.44983145 85.4375 136.5625 C87.65632222 141.44390889 87.76276171 145.72357619 87 151 C84.6438885 156.18344529 81.17423864 158.83822912 76 161 C74.52586394 161.41417501 73.04607004 161.80850396 71.5625 162.1875 C64.54009806 164.15461862 58.50208641 168.09245802 52.23876953 171.71777344 C41.27070142 177.99959391 30.30954136 183.57289435 18.375 187.7578125 C15.65669605 188.75829937 13.31352825 189.82232971 10.8125 191.25 C5.5603948 193.97748811 -0.19136629 194.39242425 -6 195 C-7.27713867 195.13535156 -7.27713867 195.13535156 -8.58007812 195.2734375 C-43.26769821 198.8410315 -43.26769821 198.8410315 -54 193 C-57.61996888 191.87274437 -57.61996888 191.87274437 -61 193 C-70.64427928 193.85726927 -79.40937201 192.32552333 -87 186 C-89.4541176 182.14352948 -90.4129555 178.39627848 -91.3984375 174.01171875 C-92.03408149 171.88602619 -92.90455405 170.26186877 -94.0625 168.375 C-98.35349745 160.90035928 -97.98464022 150.46545451 -97 142 C-95.25013938 136.34445046 -92.12170901 131.26383691 -88 127 C-87.34 127 -86.68 127 -86 127 C-86.03480469 126.05640625 -86.06960937 125.1128125 -86.10546875 124.140625 C-86.4773425 106.50318425 -81.78853872 93.59361818 -69.60742188 80.70703125 C-68.41243475 79.46411241 -67.20731593 78.23094667 -66 77 C-66.47730838 75.5410574 -66.95691042 74.08286504 -67.4375 72.625 C-67.83775391 71.40683594 -67.83775391 71.40683594 -68.24609375 70.1640625 C-68.95179729 67.98968201 -68.95179729 67.98968201 -70 66 C-70.79066596 55.63061032 -70.39704598 46.65334484 -63.8125 38.1875 C-60.78921754 35.83605809 -57.69954939 34.1552005 -54.31640625 32.3828125 C-51.93818622 30.96309936 -50.13049216 29.40254082 -48.125 27.5 C-42.46240571 22.33274199 -35.79921487 19.23356043 -28.1875 18.375 C-25.02234412 17.80156146 -24.23471447 17.33562497 -22.35546875 14.6484375 C-21.36346143 12.7063018 -20.40390092 10.74726957 -19.4765625 8.7734375 C-15.0508019 0.46050092 -8.82470762 -1.9184147 0 0 Z M-8.4296875 9.14453125 C-12.85392082 14.25033565 -15.454681 19.77185218 -18 26 C-18.65484375 26.00257812 -19.3096875 26.00515625 -19.984375 26.0078125 C-31.6766207 26.50324664 -40.08775774 31.8257398 -48.81640625 39.26953125 C-51 41 -51 41 -54.3125 42.375 C-58.71913392 45.03947632 -60.29392464 49.26654836 -62 54 C-63.46708442 63.12852527 -57.97127112 71.70608581 -53 79 C-53.54914063 79.226875 -54.09828125 79.45375 -54.6640625 79.6875 C-65.26017259 85.64116721 -72.75207663 97.29453317 -76.40625 108.56933594 C-77.38150083 112.56176901 -77.27184432 116.47513905 -77.25 120.5625 C-77.46912669 130.59116581 -77.46912669 130.59116581 -81.3125 134.6875 C-82.53987755 135.79365508 -83.76893267 136.89795283 -85 138 C-89.29200835 143.87980334 -89.99617084 149.87885794 -89 157 C-87.61523096 161.87708901 -86.10903608 166.77073235 -82 170 C-81.01 170 -80.02 170 -79 170 C-79.66 170.99 -80.32 171.98 -81 173 C-81.58345476 175.95746492 -81.58345476 175.95746492 -81 179 C-77.06371137 182.93628863 -73.65552518 184.14920691 -68.1875 184.25 C-63.70796647 184.1782753 -60.69822642 183.72964331 -57 181 C-53.16860899 175.82244458 -52.28868782 171.3655664 -52 165 C-49.525 167.475 -49.525 167.475 -47 170 C-47.66 170.474375 -48.32 170.94875 -49 171.4375 C-51.55872662 174.71586848 -51.57502611 176.81052325 -51.39453125 180.875 C-51.11749138 183.21436653 -51.11749138 183.21436653 -49.1875 185.5 C-41.24563658 190.94584921 -27.67260012 187.84825541 -18.5625 187.1875 C-17.43779297 187.11724609 -16.31308594 187.04699219 -15.15429688 186.97460938 C-5.33470945 186.26958443 4.54869568 185.34926144 13 180 C15.43060557 179.06046147 17.85437866 178.17123497 20.3125 177.3125 C31.40524502 173.27947378 41.77995765 168.12250297 51.75 161.8125 C57.59675406 158.11294098 63.55601682 155.47411325 70 153 C74.30789191 151.4792479 74.30789191 151.4792479 78 149 C78.49163907 144.41072554 78.49163907 144.41072554 76.828125 140.30078125 C72.88417836 137.49451153 67.59564971 138.52708205 63 139 C54.87504876 140.72014733 47.90411838 145.24589783 40.79492188 149.34277344 C34.3956276 152.95894269 28.17753989 155.30072377 21 157 C21.23783203 155.53433594 21.23783203 155.53433594 21.48046875 154.0390625 C23.76911049 137.8519019 21.9154337 122.45820304 12 109 C9.10793191 105.55886498 6.10833178 102.24647986 3 99 C4.49738064 95.79592746 6.31273207 92.82698421 8.17358398 89.82299805 C16.57614585 76.19892953 20.36359762 64.10597009 20.3125 48 C20.32861328 46.98421875 20.34472656 45.9684375 20.36132812 44.921875 C20.36608726 37.49762091 19.35050916 30.70101832 16 24 C12.28111761 24.50712033 9.26545761 25.11608215 6 27 C5.690625 25.8553125 5.690625 25.8553125 5.375 24.6875 C3.2062158 18.8712151 0.43178004 12.43178004 -4 8 C-6.91489991 7.68752244 -6.91489991 7.68752244 -8.4296875 9.14453125 Z " fill="#F8FBFC" transform="translate(165,52)"/>
<path d="M0 0 C3.16115776 1.36983503 3.9927092 1.9890638 6 5 C5.0409375 5.7734375 5.0409375 5.7734375 4.0625 6.5625 C1.44208319 9.65935623 1.30610183 12.02067623 1 16 C0.67 16 0.34 16 0 16 C-0.144375 15.21625 -0.28875 14.4325 -0.4375 13.625 C-0.87798925 11.03578982 -0.87798925 11.03578982 -2 9 C-1.66015625 6.8359375 -1.66015625 6.8359375 -1.0625 4.375 C-0.86785156 3.55773437 -0.67320313 2.74046875 -0.47265625 1.8984375 C-0.23869141 0.95871094 -0.23869141 0.95871094 0 0 Z " fill="#ECF4F8" transform="translate(113,217)"/>
</svg>
